<?xml version="1.0" standalone="no"?>
<!DOCTYPE svg PUBLIC "-//W3C//DTD SVG 20010904//EN"
 "http://www.w3.org/TR/2001/REC-SVG-20010904/DTD/svg10.dtd">
<svg version="1.0" xmlns="http://www.w3.org/2000/svg"
 width="500.000000pt" height="500.000000pt" viewBox="0 0 500.000000 500.000000"
 preserveAspectRatio="xMidYMid meet">

<g transform="translate(0.000000,500.000000) scale(0.100000,-0.100000)"
fill="#000000" stroke="none">
<path d="M1845 4323 c-293 -62 -540 -272 -662 -562 -17 -42 -28 -80 -23 -85
13 -13 27 1 34 34 9 50 81 186 136 260 123 166 325 293 524 329 224 41 451
-24 633 -179 32 -27 63 -48 70 -45 7 2 10 -2 7 -9 -3 -7 11 -32 30 -55 81 -97
155 -235 221 -416 7 -19 7 -19 18 3 8 18 3 40 -26 115 -20 50 -38 97 -39 102
-3 15 69 60 126 79 169 56 335 -24 462 -220 61 -95 85 -179 99 -344 6 -80 8
-150 4 -155 -11 -14 -14 -119 -4 -135 5 -8 4 -11 -2 -7 -6 4 -19 -20 -31 -56
-27 -82 -80 -171 -145 -242 l-52 -56 -78 51 c-70 47 -97 55 -97 29 0 -5 26
-26 58 -46 230 -145 366 -335 379 -528 6 -93 -7 -151 -43 -195 -22 -26 -33
-30 -74 -30 -38 0 -58 7 -101 35 -47 32 -79 39 -79 18 0 -5 24 -24 53 -43 41
-27 64 -35 112 -38 54 -4 64 -1 92 22 40 33 77 124 59 145 -8 12 -8 13 2 7 18
-11 16 100 -4 178 l-16 64 60 79 c201 265 263 420 293 738 13 145 5 329 -14
322 -9 -3 -12 -57 -13 -179 -2 -261 -39 -448 -119 -608 -40 -79 -139 -230
-187 -285 l-35 -39 -19 39 c-10 22 -24 46 -31 53 -7 7 -13 22 -13 33 0 11 -4
17 -10 14 -5 -3 -10 1 -10 9 0 9 -3 15 -7 14 -5 -1 -36 26 -70 61 l-63 62 53
63 c70 86 123 177 148 256 24 79 42 213 28 218 -6 3 -5 10 2 18 15 19 -4 272
-26 334 -36 105 -94 197 -169 269 -40 40 -47 43 -63 30 -16 -13 -17 -12 -5 2
15 19 9 25 -58 60 -67 34 -185 38 -268 10 -35 -12 -81 -32 -101 -45 -38 -24
-38 -24 -52 -4 -8 11 -26 38 -41 59 -16 21 -28 41 -28 45 0 5 -47 58 -127 141
l-22 23 107 52 c59 28 114 53 122 54 8 1 49 12 90 23 100 27 246 28 352 1 82
-20 201 -75 256 -117 39 -29 76 -25 48 5 -27 31 -157 99 -241 128 -72 25 -94
28 -215 28 -174 0 -269 -24 -456 -115 l-82 -41 -64 45 c-92 65 -183 103 -306
127 -51 11 -68 10 -88 0 -19 -11 -27 -11 -36 -2 -16 16 -76 14 -163 -5z"/>
<path d="M3505 4130 c-4 -6 23 -42 59 -81 106 -114 196 -294 221 -437 4 -28
12 -42 26 -45 15 -4 18 -2 10 7 -6 7 -9 15 -6 18 9 8 -24 137 -56 219 -38 97
-95 186 -172 266 -62 64 -71 71 -82 53z"/>
<path d="M2201 3964 c0 -11 3 -14 6 -6 3 7 2 16 -1 19 -3 4 -6 -2 -5 -13z"/>
<path d="M1883 3945 c-57 -16 -128 -49 -137 -64 -13 -20 14 -20 46 -1 117 68
272 66 380 -5 32 -22 36 -28 28 -47 -59 -148 -58 -146 -41 -141 9 2 24 25 34
51 26 72 34 81 52 57 13 -17 17 -17 29 -5 26 26 -26 87 -108 129 -60 30 -82
35 -150 38 -50 2 -101 -3 -133 -12z"/>
<path d="M1668 3812 c-96 -101 -136 -204 -145 -377 -4 -75 0 -146 11 -223 17
-122 21 -136 39 -125 7 4 6 0 -2 -10 -11 -14 -11 -25 3 -69 29 -92 78 -200
127 -280 l47 -77 -41 -39 c-59 -55 -147 -151 -147 -160 0 -4 -11 -20 -23 -36
l-24 -29 -59 79 c-59 77 -130 188 -173 269 -12 22 -19 29 -15 16 5 -20 3 -23
-10 -18 -14 5 -11 -4 11 -46 32 -61 122 -197 186 -281 l45 -60 -21 -45 c-27
-58 -31 -221 -7 -267 56 -110 147 -157 237 -123 41 15 103 60 103 74 0 7 7 15
15 18 8 4 23 24 35 47 11 22 23 40 26 40 2 0 22 -9 44 -20 42 -21 203 -64 283
-75 34 -4 53 -2 65 7 9 7 13 8 9 2 -10 -16 125 -26 242 -18 53 3 148 17 211
30 156 32 344 75 349 80 3 2 24 -15 48 -38 33 -32 46 -39 55 -30 8 8 -35 59
-182 212 -218 226 -285 288 -490 452 -80 64 -165 137 -190 162 -24 25 -51 46
-59 46 -8 0 -12 3 -8 6 3 4 -12 30 -33 58 -47 62 -92 159 -114 243 -22 85 -20
230 4 323 11 41 20 76 20 78 0 1 -7 2 -16 2 -8 0 -12 -5 -9 -10 4 -6 2 -17 -4
-24 -18 -21 -41 -160 -41 -239 0 -119 28 -219 98 -348 1 -4 -30 -29 -70 -55
-66 -44 -225 -167 -287 -223 -13 -11 -29 -21 -35 -21 -13 0 -59 73 -105 165
-46 93 -87 229 -105 352 -40 277 2 470 129 598 48 47 57 65 35 65 -4 0 -32
-26 -62 -58z m592 -943 c0 -4 7 -10 16 -13 9 -4 14 -13 10 -22 -3 -9 -2 -12 4
-9 10 6 135 -101 135 -116 0 -12 -110 -97 -210 -164 -50 -33 -126 -96 -170
-140 -73 -72 -87 -93 -149 -220 -38 -77 -77 -153 -88 -168 -35 -49 -96 -87
-140 -87 -79 0 -158 67 -174 148 -6 28 -9 31 -23 20 -14 -11 -14 -11 -5 2 6 8
14 49 18 90 8 98 10 114 17 120 3 3 19 30 37 60 83 147 375 420 598 558 l47
30 38 -41 c22 -22 39 -44 39 -48z m268 -231 c84 -65 232 -189 232 -194 0 -7
-51 -25 -90 -32 -19 -4 -110 -7 -202 -7 -163 0 -166 0 -150 -19 16 -17 30 -18
174 -14 98 3 162 9 171 16 8 7 16 10 18 7 3 -2 28 2 57 9 l52 14 136 -143 c75
-79 136 -147 136 -152 -1 -8 -75 -28 -242 -63 -52 -12 -105 -23 -118 -26 -15
-3 -20 -9 -15 -17 5 -9 3 -9 -9 0 -11 10 -33 11 -89 3 -163 -21 -343 -8 -519
37 -66 17 -154 55 -164 72 -7 11 50 121 71 138 8 6 14 14 14 17 -3 20 3 29 41
73 64 75 63 74 148 47 41 -13 88 -24 105 -24 26 0 27 2 15 14 -8 8 -48 26 -88
39 l-74 25 54 39 c29 22 78 56 108 76 30 20 75 54 100 76 25 22 49 40 53 41 4
0 38 -23 75 -52z"/>
<path d="M2275 3780 c-3 -5 -1 -19 5 -30 6 -11 8 -26 4 -32 -4 -7 -3 -8 4 -4
7 4 12 3 12 -3 0 -5 6 -16 14 -23 28 -29 80 -133 78 -157 -1 -20 0 -23 8 -11
8 12 10 11 10 -5 0 -12 4 -25 9 -30 6 -6 26 -53 46 -105 46 -121 77 -190 85
-190 4 0 7 -6 7 -13 0 -24 65 -110 132 -176 56 -55 290 -221 311 -221 4 0 13
6 19 13 8 11 1 19 -32 37 -59 32 -206 130 -213 141 -3 5 10 47 29 92 55 127
70 191 71 299 1 87 -1 100 -20 119 l-22 21 9 -43 c23 -124 -1 -253 -79 -421
-9 -21 -20 -38 -23 -38 -20 0 -162 187 -153 202 3 4 -1 5 -8 3 -8 -3 -14 2
-15 12 -1 21 -131 341 -167 413 -36 71 -94 160 -105 160 -6 0 -13 -4 -16 -10z"/>
<path d="M1542 3735 c0 -16 2 -22 5 -12 2 9 2 23 0 30 -3 6 -5 -1 -5 -18z"/>
<path d="M1146 3653 c-12 -12 -6 -43 9 -43 8 0 15 9 15 19 0 21 -13 34 -24 24z"/>
<path d="M2130 3640 c0 -5 5 -10 11 -10 5 0 7 5 4 10 -3 6 -8 10 -11 10 -2 0
-4 -4 -4 -10z"/>
<path d="M2846 3550 c4 -25 11 -49 16 -55 6 -6 7 5 2 30 -10 58 -25 80 -18 25z"/>
<path d="M2821 3554 c0 -11 3 -14 6 -6 3 7 2 16 -1 19 -3 4 -6 -2 -5 -13z"/>
<path d="M1116 3498 c-10 -37 -7 -58 8 -58 9 0 15 14 18 40 4 44 -15 57 -26
18z"/>
<path d="M1105 3390 c-9 -41 12 -247 36 -350 23 -102 69 -240 80 -240 20 0 18
27 -11 117 -47 144 -70 278 -70 398 0 84 -3 105 -14 105 -8 0 -17 -13 -21 -30z"/>
<path d="M3030 2779 c0 -5 5 -7 10 -4 6 3 10 8 10 11 0 2 -4 4 -10 4 -5 0 -10
-5 -10 -11z"/>
<path d="M3431 2484 c0 -11 3 -14 6 -6 3 7 2 16 -1 19 -3 4 -6 -2 -5 -13z"/>
<path d="M3021 2274 c0 -11 3 -14 6 -6 3 7 2 16 -1 19 -3 4 -6 -2 -5 -13z"/>
<path d="M3361 1588 c-31 -83 -115 -277 -127 -296 -9 -13 -25 -27 -37 -32 -16
-6 -2 -9 48 -9 58 0 66 2 48 11 -26 12 -28 22 -12 67 11 31 11 31 84 31 73 0
73 0 84 -31 16 -45 14 -55 -11 -67 -19 -9 -8 -11 56 -11 l78 -1 -29 28 c-20
19 -47 74 -88 180 -59 151 -77 175 -94 130z m39 -128 c16 -40 30 -74 30 -76 0
-2 -30 -4 -66 -4 -49 0 -65 3 -61 13 41 104 60 147 63 144 2 -2 17 -36 34 -77z"/>
<path d="M1463 1587 c36 -14 38 -27 35 -177 -3 -119 -4 -125 -25 -135 -42 -18
-23 -25 70 -25 117 0 162 13 208 59 66 66 64 179 -6 240 -46 40 -91 51 -210
50 -84 -1 -95 -3 -72 -12z m213 -32 c43 -28 59 -64 59 -131 0 -47 -5 -69 -21
-91 -27 -37 -80 -63 -126 -63 l-38 0 0 156 0 157 51 -6 c28 -4 62 -13 75 -22z"/>
<path d="M1859 1586 c35 -20 40 -37 40 -163 1 -127 -2 -140 -38 -156 -22 -10
-3 -12 114 -15 76 -1 145 0 152 2 8 4 13 23 13 53 l0 48 -20 -33 c-24 -39 -54
-52 -120 -52 l-48 0 -7 69 c-4 39 -4 75 0 80 7 12 60 13 89 2 10 -4 24 -18 32
-32 12 -22 13 -18 13 46 l0 70 -20 -27 c-17 -23 -28 -28 -65 -28 l-44 0 0 65
0 65 58 0 c60 0 102 -19 102 -46 0 -8 5 -14 10 -14 6 0 10 18 10 40 l0 40
-147 0 c-130 -1 -145 -2 -124 -14z"/>
<path d="M2186 1589 c28 -14 39 -102 29 -225 -7 -78 -10 -86 -31 -94 -39 -15
-28 -20 41 -20 62 0 91 15 43 22 -22 3 -23 6 -25 138 l-3 135 55 -125 c30 -69
59 -134 64 -145 10 -22 1 -39 90 170 l46 110 3 -129 c3 -129 -3 -156 -34 -156
-8 0 -14 -4 -14 -10 0 -6 32 -10 75 -10 41 0 75 4 75 9 0 5 -10 11 -22 13 -29
4 -35 33 -36 163 -1 113 4 131 39 151 22 13 20 14 -35 11 l-58 -2 -51 -122
c-28 -68 -54 -123 -57 -123 -3 0 -29 55 -57 123 l-52 122 -53 2 c-43 2 -49 0
-32 -8z"/>
<path d="M2649 1586 c35 -20 40 -37 40 -163 1 -128 -2 -140 -38 -156 -25 -11
-25 -11 17 -15 23 -2 61 -2 85 0 41 4 41 4 16 15 -32 14 -39 44 -39 158 0 113
7 143 39 160 24 13 20 14 -59 14 -77 0 -83 -1 -61 -13z"/>
<path d="M2830 1370 c0 -19 5 -21 63 -18 47 2 62 7 62 18 0 11 -15 16 -62 18
-58 3 -63 1 -63 -18z"/>
<path d="M1487 903 c-4 -3 -7 -50 -7 -103 l0 -97 47 -1 c53 -1 83 18 83 53 0
39 -23 58 -63 53 l-37 -4 0 53 c0 49 -7 63 -23 46z m91 -142 c5 -31 -11 -45
-42 -37 -19 5 -26 13 -26 30 0 30 9 38 40 34 18 -2 26 -10 28 -27z"/>
<path d="M2547 903 c-4 -3 -7 -50 -7 -103 l0 -97 47 -1 c53 -1 83 18 83 53 0
39 -23 58 -63 53 l-37 -4 0 53 c0 49 -7 63 -23 46z m91 -142 c5 -31 -11 -45
-42 -37 -19 5 -26 13 -26 30 0 30 9 38 40 34 18 -2 26 -10 28 -27z"/>
<path d="M1930 850 c0 -5 7 -10 15 -10 8 0 15 5 15 10 0 6 -7 10 -15 10 -8 0
-15 -4 -15 -10z"/>
<path d="M2010 836 c0 -13 -6 -27 -12 -30 -10 -5 -10 -7 0 -12 7 -3 12 -24 12
-50 0 -32 4 -44 15 -44 11 0 15 12 15 45 0 33 4 45 15 45 8 0 15 5 15 10 0 6
-7 10 -15 10 -9 0 -15 9 -15 25 0 16 -6 25 -15 25 -9 0 -15 -9 -15 -24z"/>
<path d="M3282 809 c2 -8 17 -15 32 -17 l27 -3 -24 -32 c-42 -57 -42 -57 12
-57 28 0 51 5 51 10 0 6 -14 10 -30 10 l-31 0 31 45 31 45 -35 0 c-19 0 -42 3
-52 7 -12 4 -15 2 -12 -8z"/>
<path d="M1643 784 c-15 -24 -15 -29 -2 -53 29 -52 109 -36 109 22 0 42 -15
57 -57 57 -24 0 -37 -7 -50 -26z m82 -14 c8 -27 -12 -52 -39 -48 -21 3 -32 28
-22 54 8 22 54 18 61 -6z"/>
<path d="M1790 754 c0 -30 5 -54 10 -54 6 0 10 15 10 34 0 37 21 62 45 52 10
-3 15 -19 15 -46 0 -22 5 -40 11 -40 6 0 9 21 7 53 l-3 52 -47 1 -48 2 0 -54z"/>
<path d="M1930 755 c0 -42 3 -55 15 -55 12 0 15 13 15 55 0 42 -3 55 -15 55
-12 0 -15 -13 -15 -55z"/>
<path d="M2106 794 c-35 -35 -6 -94 46 -94 46 0 71 47 48 91 -13 24 -72 26
-94 3z m73 -23 c13 -24 -8 -55 -35 -49 -20 3 -30 29 -20 54 8 20 43 17 55 -5z"/>
<path d="M2336 758 c22 -44 25 -57 16 -80 -8 -21 -7 -28 2 -28 10 0 32 45 73
148 3 6 0 12 -6 12 -6 0 -18 -17 -27 -37 l-16 -38 -19 38 c-11 20 -26 37 -34
37 -12 0 -10 -11 11 -52z"/>
<path d="M2702 758 l3 -53 48 -1 47 -2 0 54 c0 30 -4 54 -10 54 -5 0 -10 -13
-10 -29 0 -42 -10 -61 -31 -61 -16 0 -19 8 -19 45 0 34 -4 45 -16 45 -12 0
-14 -10 -12 -52z"/>
<path d="M2856 794 c-36 -36 -3 -99 48 -92 15 2 26 8 26 13 -1 6 -12 9 -25 7
-40 -5 -36 14 5 28 22 7 40 18 40 25 0 34 -66 48 -94 19z m64 -13 c0 -11 -39
-25 -47 -18 -3 3 -2 10 2 16 8 13 45 15 45 2z"/>
<path d="M2990 754 c0 -30 5 -54 10 -54 6 0 10 15 10 34 0 37 21 62 45 52 10
-3 15 -19 15 -46 0 -22 5 -40 11 -40 6 0 9 21 7 53 l-3 52 -47 1 -48 2 0 -54z"/>
<path d="M3140 795 c-7 -8 -12 -26 -12 -40 0 -41 19 -55 73 -53 l49 1 0 52 0
52 -49 1 c-32 1 -53 -3 -61 -13z m75 -40 c0 -25 -4 -30 -24 -30 -28 0 -47 25
-38 49 5 12 16 16 34 14 24 -3 28 -8 28 -33z"/>
<path d="M3420 795 c-16 -20 -16 -61 0 -80 21 -26 81 -16 99 16 13 24 13 29
-2 53 -20 30 -76 36 -97 11z m75 -16 c4 -5 4 -21 1 -35 -9 -34 -53 -34 -62 0
-8 32 2 46 31 46 13 0 27 -5 30 -11z"/>
</g>
</svg>
